<svg width="279" height="336" viewBox="0 0 279 336" fill="none" xmlns="http://www.w3.org/2000/svg">
<rect x="0.5" y="0.5" width="278" height="335" rx="4.5" stroke="#9747FF" stroke-dasharray="10 5"/>
<path d="M148.676 200.093C145.946 197.743 143.31 195.235 140.77 192.567C138.293 189.836 135.975 187.042 133.816 184.184C131.72 181.327 129.783 178.437 128.005 175.516C126.29 172.531 124.829 169.609 123.623 166.752C121.464 169.101 119.304 171.483 117.145 173.896C115.049 176.246 113.176 178.627 111.525 181.041C109.873 183.391 108.54 185.772 107.524 188.185C106.444 190.535 105.904 192.885 105.904 195.235C105.904 198.029 106.381 200.442 107.333 202.474C108.222 204.443 109.429 206.063 110.953 207.333C112.477 208.603 114.224 209.524 116.192 210.095C118.161 210.667 120.193 210.953 122.289 210.953C126.481 210.953 130.926 209.968 135.626 208C140.325 206.031 144.675 203.395 148.676 200.093ZM136.864 143.603C136.864 141.381 136.356 139.793 135.34 138.84C134.387 137.824 133.339 137.316 132.196 137.316C131.244 137.316 130.227 137.634 129.148 138.269C128.132 138.904 127.179 139.825 126.29 141.031C125.464 142.174 124.766 143.572 124.194 145.223C123.623 146.874 123.337 148.684 123.337 150.653C123.337 154.272 124.004 158.115 125.337 162.179C126.925 160.528 128.418 158.909 129.815 157.321C131.212 155.733 132.418 154.177 133.435 152.653C134.514 151.065 135.34 149.541 135.911 148.081C136.546 146.556 136.864 145.064 136.864 143.603ZM173.539 213.144C173.539 213.334 173.412 213.525 173.158 213.715C172.904 213.906 172.523 214.001 172.015 214.001C168.205 212.794 164.458 211.111 160.774 208.952C157.091 206.729 153.503 204.157 150.01 201.236C147.597 203.078 145.088 204.761 142.484 206.285C139.881 207.809 137.213 209.111 134.482 210.191C131.815 211.27 129.116 212.096 126.385 212.667C123.718 213.239 121.146 213.525 118.669 213.525C116.256 213.525 113.97 213.175 111.81 212.477C109.651 211.842 107.778 210.857 106.19 209.524C104.602 208.127 103.364 206.412 102.475 204.38C101.522 202.347 101.046 199.966 101.046 197.235C101.046 194.314 101.713 191.456 103.046 188.662C104.38 185.804 106.095 183.009 108.191 180.279C110.286 177.548 112.604 174.881 115.145 172.277C117.748 169.673 120.289 167.133 122.765 164.656C120.924 159.702 120.003 155.225 120.003 151.224C120.003 148.874 120.416 146.715 121.241 144.746C122.13 142.778 123.242 141.095 124.575 139.698C125.909 138.3 127.37 137.221 128.957 136.459C130.609 135.633 132.164 135.22 133.625 135.22C135.34 135.22 136.896 135.792 138.293 136.935C139.69 138.015 140.389 139.825 140.389 142.365C140.389 143.953 139.976 145.604 139.15 147.318C138.388 149.033 137.34 150.811 136.007 152.653C134.736 154.431 133.212 156.305 131.434 158.273C129.719 160.179 127.909 162.147 126.004 164.18C128.1 169.959 131.212 175.833 135.34 181.803C139.531 187.709 144.612 193.234 150.582 198.378C153.82 195.457 156.424 192.25 158.393 188.757C160.362 185.264 161.346 181.612 161.346 177.802C161.346 176.532 161.155 175.262 160.774 173.991C160.457 172.658 159.79 171.261 158.774 169.8C158.774 169.673 158.964 169.546 159.346 169.419C159.727 169.228 160.076 169.133 160.393 169.133C161.282 169.133 161.981 169.451 162.489 170.086C163.061 170.657 163.473 171.356 163.728 172.182C164.045 173.007 164.236 173.864 164.299 174.754C164.426 175.579 164.49 176.246 164.49 176.754C164.49 180.945 163.315 185.01 160.965 188.947C158.679 192.821 155.694 196.378 152.01 199.617C158.171 204.888 165.125 209.174 172.873 212.477C173.317 212.731 173.539 212.953 173.539 213.144Z" fill="#FFA55C"/>
<path d="M37.24 179.128C37.24 177.144 37.112 175.496 36.856 174.184C36.632 172.872 36.312 172.216 35.896 172.216C35.64 172.216 35.4 172.408 35.176 172.792C34.952 173.144 34.76 173.656 34.6 174.328C34.472 174.968 34.36 175.736 34.264 176.632C34.2 177.496 34.168 178.44 34.168 179.464C34.168 181.288 34.296 183.256 34.552 185.368C34.808 187.448 35.256 189.464 35.896 191.416C36.344 189.368 36.68 187.272 36.904 185.128C37.128 182.952 37.24 180.952 37.24 179.128ZM57.352 157.336C57.352 157.496 57.288 157.624 57.16 157.72C57.032 157.816 56.872 157.928 56.68 158.056C55.72 158.632 54.936 159.432 54.328 160.456C53.72 161.48 53.224 162.6 52.84 163.816C52.488 165.032 52.248 166.28 52.12 167.56C51.992 168.808 51.928 169.96 51.928 171.016C51.928 171.752 51.96 172.664 52.024 173.752C52.12 174.808 52.216 175.976 52.312 177.256C52.44 178.536 52.536 179.896 52.6 181.336C52.696 182.744 52.744 184.184 52.744 185.656C52.744 187.736 52.616 189.752 52.36 191.704C52.136 193.656 51.672 195.4 50.968 196.936C50.296 198.472 49.352 199.704 48.136 200.632C46.92 201.56 45.336 202.024 43.384 202.024C42.488 202.024 41.64 201.848 40.84 201.496C40.072 201.176 39.352 200.712 38.68 200.104C38.04 199.496 37.448 198.792 36.904 197.992C36.392 197.192 35.928 196.312 35.512 195.352C35.096 196.472 34.6 197.512 34.024 198.472C33.48 199.432 32.872 200.264 32.2 200.968C31.528 201.672 30.792 202.216 29.992 202.6C29.192 202.984 28.344 203.176 27.448 203.176C26.072 203.176 24.904 202.824 23.944 202.12C23.016 201.416 22.248 200.488 21.64 199.336C21.032 198.216 20.552 196.936 20.2 195.496C19.88 194.024 19.64 192.536 19.48 191.032C19.32 189.496 19.208 188.008 19.144 186.568C19.112 185.096 19.08 183.8 19.048 182.68C18.984 180.664 19.016 178.76 19.144 176.968C19.304 175.144 19.48 173.512 19.672 172.072C19.864 170.6 20.056 169.336 20.248 168.28C20.44 167.224 20.568 166.44 20.632 165.928C20.664 165.736 20.856 165.608 21.208 165.544C21.592 165.48 21.928 165.448 22.216 165.448C22.44 165.448 22.632 165.48 22.792 165.544C22.952 165.576 23.032 165.672 23.032 165.832C23.032 166.024 22.952 166.36 22.792 166.84C22.632 167.288 22.392 168.152 22.072 169.432C21.944 170.008 21.8 170.84 21.64 171.928C21.512 172.984 21.384 174.184 21.256 175.528C21.16 176.872 21.08 178.312 21.016 179.848C20.952 181.352 20.92 182.824 20.92 184.264C20.92 185.384 20.968 186.616 21.064 187.96C21.16 189.272 21.32 190.584 21.544 191.896C21.768 193.176 22.072 194.424 22.456 195.64C22.84 196.856 23.304 197.928 23.848 198.856C24.424 199.784 25.096 200.52 25.864 201.064C26.632 201.64 27.528 201.928 28.552 201.928C29.32 201.928 30.024 201.736 30.664 201.352C31.304 200.968 31.896 200.424 32.44 199.72C32.984 199.048 33.464 198.248 33.88 197.32C34.328 196.392 34.728 195.384 35.08 194.296C34.344 192.28 33.8 190.136 33.448 187.864C33.096 185.592 32.92 183.496 32.92 181.576C32.92 180.168 32.968 178.776 33.064 177.4C33.192 176.024 33.368 174.792 33.592 173.704C33.816 172.616 34.104 171.736 34.456 171.064C34.808 170.392 35.224 170.056 35.704 170.056C36.088 170.056 36.424 170.296 36.712 170.776C37.032 171.256 37.288 171.912 37.48 172.744C37.704 173.576 37.864 174.568 37.96 175.72C38.088 176.84 38.152 178.056 38.152 179.368C38.152 181.48 38.008 183.704 37.72 186.04C37.432 188.344 36.984 190.6 36.376 192.808C36.792 193.928 37.272 194.968 37.816 195.928C38.36 196.856 38.968 197.672 39.64 198.376C40.344 199.08 41.112 199.624 41.944 200.008C42.808 200.424 43.752 200.632 44.776 200.632C46.184 200.632 47.336 200.28 48.232 199.576C49.128 198.904 49.832 197.976 50.344 196.792C50.856 195.576 51.208 194.184 51.4 192.616C51.592 191.016 51.688 189.304 51.688 187.48C51.688 185.848 51.624 184.168 51.496 182.44C51.4 180.712 51.288 179 51.16 177.304C51.032 175.576 50.904 173.912 50.776 172.312C50.68 170.68 50.632 169.176 50.632 167.8C50.632 166.808 50.776 165.656 51.064 164.344C51.384 163.032 51.8 161.8 52.312 160.648C52.856 159.464 53.464 158.472 54.136 157.672C54.84 156.84 55.576 156.424 56.344 156.424C56.568 156.424 56.792 156.536 57.016 156.76C57.24 156.952 57.352 157.144 57.352 157.336Z" fill="#1F1711"/>
<path d="M72.3396 189.208C72.3396 188.728 72.2596 188.344 72.0996 188.056C71.9396 187.736 71.6836 187.576 71.3316 187.576C70.7876 187.576 70.3716 187.848 70.0836 188.392C69.7956 188.904 69.6676 189.56 69.6996 190.36C69.7956 192.056 70.0996 193.48 70.6116 194.632C71.1556 193.896 71.5716 193.064 71.8596 192.136C72.1796 191.208 72.3396 190.232 72.3396 189.208ZM85.2996 189.16C85.0756 189.64 84.8356 190.136 84.5796 190.648C84.3236 191.128 84.0356 191.608 83.7156 192.088C82.0836 194.52 80.4356 196.328 78.7716 197.512C77.1076 198.696 75.5556 199.288 74.1156 199.288C72.2916 199.288 70.8996 198.424 69.9396 196.696C68.8196 197.816 67.5556 198.664 66.1476 199.24C64.7716 199.816 63.4116 200.104 62.0676 200.104C61.2676 200.104 60.4996 199.992 59.7636 199.768C59.0596 199.544 58.4516 199.208 57.9396 198.76C57.3956 198.28 56.9636 197.688 56.6436 196.984C56.3236 196.248 56.1636 195.4 56.1636 194.44C56.1636 193.288 56.4356 192.12 56.9796 190.936C57.4916 189.72 58.2116 188.632 59.1396 187.672C60.0996 186.68 61.2196 185.864 62.4996 185.224C63.7796 184.584 65.1716 184.264 66.6756 184.264C67.8916 184.264 68.8356 184.44 69.5076 184.792C70.1796 185.112 70.5156 185.416 70.5156 185.704C70.5156 185.832 70.4516 185.928 70.3236 185.992C70.1956 186.056 70.0836 186.088 69.9876 186.088C69.9556 186.056 69.9236 186.04 69.8916 186.04H69.8436C69.4596 185.688 69.0276 185.416 68.5476 185.224C68.0676 185 67.3636 184.888 66.4356 184.888C65.1876 184.888 64.0516 185.16 63.0276 185.704C62.0356 186.216 61.1876 186.904 60.4836 187.768C59.7796 188.6 59.2356 189.528 58.8516 190.552C58.4676 191.576 58.2756 192.584 58.2756 193.576C58.2756 195.496 58.7236 196.888 59.6196 197.752C60.5156 198.616 61.6356 199.048 62.9796 199.048C64.0676 199.048 65.2036 198.776 66.3876 198.232C67.5716 197.688 68.6276 196.92 69.5556 195.928C69.0436 194.776 68.7876 193.272 68.7876 191.416C68.7876 190.2 69.0116 189.144 69.4596 188.248C69.9076 187.352 70.5476 186.904 71.3796 186.904C72.5316 186.904 73.1076 187.576 73.1076 188.92C73.1076 190.264 72.9156 191.48 72.5316 192.568C72.1476 193.624 71.6356 194.584 70.9956 195.448C71.8916 197.112 73.1396 197.944 74.7396 197.944C75.9556 197.944 77.2516 197.432 78.6276 196.408C80.0356 195.384 81.4116 193.896 82.7556 191.944C83.0756 191.464 83.3636 190.968 83.6196 190.456C83.8756 189.944 84.1316 189.432 84.3876 188.92L85.2996 189.16Z" fill="#1F1711"/>
<path d="M91.9667 167.704C91.9667 165.88 91.6627 164.424 91.0547 163.336C90.4787 162.216 89.5027 161.656 88.1267 161.656C87.6467 161.656 87.1987 161.816 86.7827 162.136C86.3987 162.424 86.0627 162.824 85.7747 163.336C85.4867 163.848 85.2627 164.44 85.1027 165.112C84.9427 165.784 84.8627 166.504 84.8627 167.272C84.8627 169.384 84.8787 171.304 84.9107 173.032C84.9427 174.76 84.9747 176.392 85.0067 177.928C85.0707 179.464 85.1347 180.952 85.1987 182.392C85.2627 183.832 85.3267 185.304 85.3907 186.808C86.3187 185.56 87.1827 184.136 87.9827 182.536C88.7827 180.904 89.4707 179.24 90.0467 177.544C90.6547 175.816 91.1187 174.104 91.4387 172.408C91.7907 170.712 91.9667 169.144 91.9667 167.704ZM109.343 189.16C109.119 189.64 108.879 190.136 108.623 190.648C108.399 191.16 108.111 191.64 107.759 192.088C105.999 194.584 103.999 196.552 101.759 197.992C99.5187 199.4 97.2947 200.104 95.0867 200.104C93.7107 200.104 92.3987 199.784 91.1507 199.144C89.9027 198.536 88.7987 197.544 87.8387 196.168C87.7107 196.008 87.6467 195.864 87.6467 195.736C87.6467 195.448 87.8387 195.304 88.2227 195.304C88.2547 195.304 88.3667 195.336 88.5587 195.4C88.8147 195.4 89.1027 195.496 89.4227 195.688C89.7747 195.848 90.2707 195.928 90.9107 195.928C91.9027 195.928 92.8307 195.752 93.6947 195.4C94.5587 195.048 95.2947 194.6 95.9027 194.056C96.5427 193.48 97.0387 192.84 97.3907 192.136C97.7427 191.4 97.9187 190.648 97.9187 189.88C97.9187 188.92 97.6627 188.088 97.1507 187.384C96.6707 186.68 95.8387 186.328 94.6547 186.328C93.4387 186.328 92.3187 186.76 91.2947 187.624C90.2707 188.456 89.3427 189.48 88.5107 190.696C87.7107 191.88 87.0227 193.144 86.4467 194.488C85.8707 195.8 85.4387 196.952 85.1507 197.944C84.9907 198.488 84.8467 198.824 84.7187 198.952C84.5907 199.08 84.4467 199.144 84.2867 199.144C83.9347 199.144 83.7747 198.808 83.8067 198.136C83.8067 197.848 83.8227 197.496 83.8547 197.08C83.8867 196.664 83.9187 196.216 83.9507 195.736C83.9507 195.256 83.9667 194.776 83.9987 194.296C84.0307 193.784 84.0467 193.32 84.0467 192.904C84.0467 191.464 84.0147 189.816 83.9507 187.96C83.8867 186.072 83.8067 184.136 83.7107 182.152C83.6147 180.136 83.5347 178.136 83.4707 176.152C83.4067 174.168 83.3747 172.344 83.3747 170.68C83.3747 169.368 83.4707 168.104 83.6627 166.888C83.8547 165.64 84.1587 164.552 84.5747 163.624C84.9907 162.664 85.5187 161.912 86.1587 161.368C86.7987 160.792 87.5507 160.504 88.4147 160.504C89.3107 160.504 90.0627 160.664 90.6707 160.984C91.3107 161.272 91.8227 161.704 92.2067 162.28C92.5907 162.824 92.8627 163.496 93.0227 164.296C93.2147 165.064 93.3107 165.912 93.3107 166.84C93.3107 168.44 93.0867 170.2 92.6387 172.12C92.1907 174.008 91.5987 175.912 90.8627 177.832C90.1267 179.752 89.2787 181.608 88.3187 183.4C87.3907 185.16 86.4307 186.696 85.4387 188.008C85.5027 188.968 85.5347 189.96 85.5347 190.984C85.5667 192.008 85.6147 193.096 85.6787 194.248C86.4787 192.52 87.3587 191.032 88.3187 189.784C88.7347 189.24 89.1987 188.712 89.7107 188.2C90.2547 187.656 90.8147 187.176 91.3907 186.76C91.9987 186.344 92.6387 186.008 93.3107 185.752C94.0147 185.496 94.7507 185.368 95.5187 185.368C96.7347 185.368 97.7907 185.672 98.6867 186.28C99.5827 186.888 100.031 187.864 100.031 189.208C100.031 190.488 99.7107 191.576 99.0707 192.472C98.4627 193.368 97.6947 194.12 96.7667 194.728C95.8387 195.304 94.8467 195.736 93.7907 196.024C92.7347 196.312 91.7747 196.488 90.9107 196.552C90.8467 196.552 90.8147 196.568 90.8147 196.6C90.8147 196.664 90.8627 196.76 90.9587 196.888C91.5987 197.624 92.3187 198.152 93.1187 198.472C93.9187 198.792 94.7507 198.952 95.6147 198.952C96.6707 198.952 97.7427 198.76 98.8307 198.376C99.9187 197.96 100.959 197.432 101.951 196.792C102.943 196.12 103.855 195.368 104.687 194.536C105.551 193.672 106.255 192.808 106.799 191.944C107.119 191.464 107.407 190.968 107.663 190.456C107.919 189.944 108.175 189.432 108.431 188.92L109.343 189.16Z" fill="#1F1711"/>
<path d="M116.11 186.184C116.11 185.32 115.886 184.616 115.438 184.072C115.022 183.496 114.334 183.208 113.374 183.208C112.862 183.208 112.398 183.368 111.982 183.688C111.566 184.008 111.214 184.44 110.926 184.984C110.638 185.496 110.414 186.104 110.254 186.808C110.094 187.512 110.014 188.248 110.014 189.016C110.014 190.232 110.142 191.32 110.398 192.28C110.686 193.208 111.086 194.024 111.598 194.728C112.27 194.184 112.878 193.56 113.422 192.856C113.966 192.152 114.43 191.416 114.814 190.648C115.23 189.88 115.55 189.112 115.774 188.344C115.998 187.576 116.11 186.856 116.11 186.184ZM128.254 189.16C128.03 189.64 127.79 190.136 127.534 190.648C127.31 191.128 127.022 191.608 126.67 192.088C125.102 194.328 123.31 196.024 121.294 197.176C119.31 198.296 117.406 198.856 115.582 198.856C114.558 198.856 113.598 198.68 112.702 198.328C111.838 197.976 111.086 197.448 110.446 196.744C109.806 196.04 109.294 195.16 108.91 194.104C108.526 193.048 108.334 191.8 108.334 190.36C108.334 189.4 108.478 188.44 108.766 187.48C109.054 186.52 109.438 185.656 109.918 184.888C110.43 184.12 111.006 183.496 111.646 183.016C112.318 182.536 113.022 182.296 113.758 182.296C114.942 182.296 115.806 182.648 116.35 183.352C116.894 184.024 117.166 184.888 117.166 185.944C117.166 187.384 116.718 188.952 115.822 190.648C114.958 192.312 113.71 193.864 112.078 195.304C113.294 196.68 114.862 197.368 116.782 197.368C118.222 197.368 119.726 196.936 121.294 196.072C122.862 195.176 124.334 193.8 125.71 191.944C126.062 191.496 126.35 191.016 126.574 190.504C126.83 189.96 127.086 189.432 127.342 188.92L128.254 189.16Z" fill="#1F1711"/>
<path d="M169.839 177.064C168.655 177.064 167.519 177.192 166.431 177.448C165.375 177.704 164.431 178.008 163.599 178.36C162.799 178.712 162.143 179.08 161.631 179.464C161.151 179.848 160.911 180.184 160.911 180.472C160.911 180.856 161.359 181.048 162.255 181.048C163.791 181.048 165.247 180.68 166.623 179.944C168.031 179.208 169.295 178.248 170.415 177.064H169.839ZM183.807 184.264C183.807 185.832 183.359 187.528 182.463 189.352C181.599 191.176 180.399 192.984 178.863 194.776C177.327 196.568 175.503 198.296 173.391 199.96C171.279 201.624 169.007 203.096 166.575 204.376C164.143 205.656 161.583 206.664 158.895 207.4C156.207 208.168 153.519 208.552 150.831 208.552C150.383 208.552 149.887 208.536 149.343 208.504C148.831 208.472 148.351 208.392 147.903 208.264C147.455 208.168 147.071 207.992 146.751 207.736C146.431 207.512 146.271 207.192 146.271 206.776C146.271 206.2 146.559 205.64 147.135 205.096C147.711 204.584 148.447 204.104 149.343 203.656C150.239 203.208 151.215 202.808 152.271 202.456C153.327 202.104 154.335 201.8 155.295 201.544C156.287 201.288 157.151 201.08 157.887 200.92C158.623 200.792 159.119 200.728 159.375 200.728C159.567 200.728 159.711 200.776 159.807 200.872C159.903 200.968 159.951 201.064 159.951 201.16C159.951 201.32 159.871 201.4 159.711 201.4H159.087C158.255 201.4 157.199 201.56 155.919 201.88C154.639 202.2 153.391 202.6 152.175 203.08C150.959 203.56 149.919 204.088 149.055 204.664C148.191 205.272 147.759 205.832 147.759 206.344C147.759 206.696 147.871 206.968 148.095 207.16C148.351 207.384 148.655 207.56 149.007 207.688C149.359 207.816 149.727 207.896 150.111 207.928C150.495 207.992 150.831 208.024 151.119 208.024C153.391 208.024 155.711 207.64 158.079 206.872C160.479 206.104 162.799 205.08 165.039 203.8C167.311 202.552 169.439 201.096 171.423 199.432C173.439 197.8 175.199 196.104 176.703 194.344C178.207 192.552 179.391 190.776 180.255 189.016C181.119 187.224 181.551 185.56 181.551 184.024C181.551 182.136 180.767 180.568 179.199 179.32C177.663 178.04 175.119 177.304 171.567 177.112C170.127 178.456 168.543 179.544 166.815 180.376C165.119 181.208 163.391 181.624 161.631 181.624C160.383 181.624 159.759 181.32 159.759 180.712C159.759 180.328 160.015 179.896 160.527 179.416C161.071 178.904 161.807 178.424 162.735 177.976C163.695 177.528 164.831 177.16 166.143 176.872C167.455 176.552 168.895 176.392 170.463 176.392H171.039C172.095 175.144 172.943 173.784 173.583 172.312C174.223 170.808 174.543 169.336 174.543 167.896C174.543 166.936 174.367 166.024 174.015 165.16C173.695 164.264 173.151 163.496 172.383 162.856C171.647 162.216 170.671 161.704 169.455 161.32C168.271 160.936 166.831 160.744 165.135 160.744C163.983 160.744 162.383 160.904 160.335 161.224C158.319 161.544 156.127 162.04 153.759 162.712C151.423 163.352 149.039 164.168 146.607 165.16C144.175 166.152 141.967 167.304 139.983 168.616C137.999 169.928 136.383 171.416 135.135 173.08C133.887 174.744 133.263 176.584 133.263 178.6C133.263 178.856 133.215 179.08 133.119 179.272C133.023 179.432 132.927 179.512 132.831 179.512C132.703 179.512 132.607 179.384 132.543 179.128C132.447 178.84 132.399 178.376 132.399 177.736C132.687 175.656 133.535 173.768 134.943 172.072C136.351 170.376 138.095 168.872 140.175 167.56C142.223 166.216 144.479 165.064 146.943 164.104C149.407 163.144 151.839 162.36 154.239 161.752C156.671 161.112 158.927 160.648 161.007 160.36C163.119 160.04 164.847 159.88 166.191 159.88C168.143 159.88 169.791 160.072 171.135 160.456C172.511 160.808 173.631 161.304 174.495 161.944C175.359 162.552 175.983 163.288 176.367 164.152C176.751 165.016 176.943 165.928 176.943 166.888C176.943 168.456 176.511 170.088 175.647 171.784C174.815 173.448 173.679 175 172.239 176.44C174.287 176.536 176.047 176.808 177.519 177.256C178.991 177.672 180.191 178.232 181.119 178.936C182.047 179.608 182.719 180.408 183.135 181.336C183.583 182.232 183.807 183.208 183.807 184.264ZM158.367 196.888C158.367 197.336 158.335 197.656 158.271 197.848C158.207 198.04 158.031 198.136 157.743 198.136C157.103 198.2 156.783 197.56 156.783 196.216C156.751 191.8 156.703 187.768 156.639 184.12C156.607 180.472 156.559 177.32 156.495 174.664C156.463 171.976 156.431 169.848 156.399 168.28C156.367 166.712 156.351 165.816 156.351 165.592C156.351 165.336 156.431 165.16 156.591 165.064C156.751 164.968 156.943 164.888 157.167 164.824C157.423 164.824 157.615 164.904 157.743 165.064C157.903 165.224 157.983 165.416 157.983 165.64C157.983 168.2 157.999 170.84 158.031 173.56C158.063 176.248 158.095 178.936 158.127 181.624C158.191 184.312 158.239 186.952 158.271 189.544C158.335 192.136 158.367 194.584 158.367 196.888Z" fill="#1F1711"/>
<path d="M202.465 189.208C202.465 188.728 202.385 188.344 202.225 188.056C202.065 187.736 201.809 187.576 201.457 187.576C200.913 187.576 200.497 187.848 200.209 188.392C199.921 188.904 199.793 189.56 199.825 190.36C199.921 192.056 200.225 193.48 200.737 194.632C201.281 193.896 201.697 193.064 201.985 192.136C202.305 191.208 202.465 190.232 202.465 189.208ZM215.425 189.16C215.201 189.64 214.961 190.136 214.705 190.648C214.449 191.128 214.161 191.608 213.841 192.088C212.209 194.52 210.561 196.328 208.897 197.512C207.233 198.696 205.681 199.288 204.241 199.288C202.417 199.288 201.025 198.424 200.065 196.696C198.945 197.816 197.681 198.664 196.273 199.24C194.897 199.816 193.537 200.104 192.193 200.104C191.393 200.104 190.625 199.992 189.889 199.768C189.185 199.544 188.577 199.208 188.065 198.76C187.521 198.28 187.089 197.688 186.769 196.984C186.449 196.248 186.289 195.4 186.289 194.44C186.289 193.288 186.561 192.12 187.105 190.936C187.617 189.72 188.337 188.632 189.265 187.672C190.225 186.68 191.345 185.864 192.625 185.224C193.905 184.584 195.297 184.264 196.801 184.264C198.017 184.264 198.961 184.44 199.633 184.792C200.305 185.112 200.641 185.416 200.641 185.704C200.641 185.832 200.577 185.928 200.449 185.992C200.321 186.056 200.209 186.088 200.113 186.088C200.081 186.056 200.049 186.04 200.017 186.04H199.969C199.585 185.688 199.153 185.416 198.673 185.224C198.193 185 197.489 184.888 196.561 184.888C195.313 184.888 194.177 185.16 193.153 185.704C192.161 186.216 191.313 186.904 190.609 187.768C189.905 188.6 189.361 189.528 188.977 190.552C188.593 191.576 188.401 192.584 188.401 193.576C188.401 195.496 188.849 196.888 189.745 197.752C190.641 198.616 191.761 199.048 193.105 199.048C194.193 199.048 195.329 198.776 196.513 198.232C197.697 197.688 198.753 196.92 199.681 195.928C199.169 194.776 198.913 193.272 198.913 191.416C198.913 190.2 199.137 189.144 199.585 188.248C200.033 187.352 200.673 186.904 201.505 186.904C202.657 186.904 203.233 187.576 203.233 188.92C203.233 190.264 203.041 191.48 202.657 192.568C202.273 193.624 201.761 194.584 201.121 195.448C202.017 197.112 203.265 197.944 204.865 197.944C206.081 197.944 207.377 197.432 208.753 196.408C210.161 195.384 211.537 193.896 212.881 191.944C213.201 191.464 213.489 190.968 213.745 190.456C214.001 189.944 214.257 189.432 214.513 188.92L215.425 189.16Z" fill="#1F1711"/>
<path d="M222.092 167.704C222.092 165.88 221.788 164.424 221.18 163.336C220.604 162.216 219.628 161.656 218.252 161.656C217.772 161.656 217.324 161.816 216.908 162.136C216.524 162.424 216.188 162.824 215.9 163.336C215.612 163.848 215.388 164.44 215.228 165.112C215.068 165.784 214.988 166.504 214.988 167.272C214.988 169.384 215.004 171.304 215.036 173.032C215.068 174.76 215.1 176.392 215.132 177.928C215.196 179.464 215.26 180.952 215.324 182.392C215.388 183.832 215.452 185.304 215.516 186.808C216.444 185.56 217.308 184.136 218.108 182.536C218.908 180.904 219.596 179.24 220.172 177.544C220.78 175.816 221.244 174.104 221.564 172.408C221.916 170.712 222.092 169.144 222.092 167.704ZM239.468 189.16C239.244 189.64 239.004 190.136 238.748 190.648C238.524 191.16 238.236 191.64 237.884 192.088C236.124 194.584 234.124 196.552 231.884 197.992C229.644 199.4 227.42 200.104 225.212 200.104C223.836 200.104 222.524 199.784 221.276 199.144C220.028 198.536 218.924 197.544 217.964 196.168C217.836 196.008 217.772 195.864 217.772 195.736C217.772 195.448 217.964 195.304 218.348 195.304C218.38 195.304 218.492 195.336 218.684 195.4C218.94 195.4 219.228 195.496 219.548 195.688C219.9 195.848 220.396 195.928 221.036 195.928C222.028 195.928 222.956 195.752 223.82 195.4C224.684 195.048 225.42 194.6 226.028 194.056C226.668 193.48 227.164 192.84 227.516 192.136C227.868 191.4 228.044 190.648 228.044 189.88C228.044 188.92 227.788 188.088 227.276 187.384C226.796 186.68 225.964 186.328 224.78 186.328C223.564 186.328 222.444 186.76 221.42 187.624C220.396 188.456 219.468 189.48 218.636 190.696C217.836 191.88 217.148 193.144 216.572 194.488C215.996 195.8 215.564 196.952 215.276 197.944C215.116 198.488 214.972 198.824 214.844 198.952C214.716 199.08 214.572 199.144 214.412 199.144C214.06 199.144 213.9 198.808 213.932 198.136C213.932 197.848 213.948 197.496 213.98 197.08C214.012 196.664 214.044 196.216 214.076 195.736C214.076 195.256 214.092 194.776 214.124 194.296C214.156 193.784 214.172 193.32 214.172 192.904C214.172 191.464 214.14 189.816 214.076 187.96C214.012 186.072 213.932 184.136 213.836 182.152C213.74 180.136 213.66 178.136 213.596 176.152C213.532 174.168 213.5 172.344 213.5 170.68C213.5 169.368 213.596 168.104 213.788 166.888C213.98 165.64 214.284 164.552 214.7 163.624C215.116 162.664 215.644 161.912 216.284 161.368C216.924 160.792 217.676 160.504 218.54 160.504C219.436 160.504 220.188 160.664 220.796 160.984C221.436 161.272 221.948 161.704 222.332 162.28C222.716 162.824 222.988 163.496 223.148 164.296C223.34 165.064 223.436 165.912 223.436 166.84C223.436 168.44 223.212 170.2 222.764 172.12C222.316 174.008 221.724 175.912 220.988 177.832C220.252 179.752 219.404 181.608 218.444 183.4C217.516 185.16 216.556 186.696 215.564 188.008C215.628 188.968 215.66 189.96 215.66 190.984C215.692 192.008 215.74 193.096 215.804 194.248C216.604 192.52 217.484 191.032 218.444 189.784C218.86 189.24 219.324 188.712 219.836 188.2C220.38 187.656 220.94 187.176 221.516 186.76C222.124 186.344 222.764 186.008 223.436 185.752C224.14 185.496 224.876 185.368 225.644 185.368C226.86 185.368 227.916 185.672 228.812 186.28C229.708 186.888 230.156 187.864 230.156 189.208C230.156 190.488 229.836 191.576 229.196 192.472C228.588 193.368 227.82 194.12 226.892 194.728C225.964 195.304 224.972 195.736 223.916 196.024C222.86 196.312 221.9 196.488 221.036 196.552C220.972 196.552 220.94 196.568 220.94 196.6C220.94 196.664 220.988 196.76 221.084 196.888C221.724 197.624 222.444 198.152 223.244 198.472C224.044 198.792 224.876 198.952 225.74 198.952C226.796 198.952 227.868 198.76 228.956 198.376C230.044 197.96 231.084 197.432 232.076 196.792C233.068 196.12 233.98 195.368 234.812 194.536C235.676 193.672 236.38 192.808 236.924 191.944C237.244 191.464 237.532 190.968 237.788 190.456C238.044 189.944 238.3 189.432 238.556 188.92L239.468 189.16Z" fill="#1F1711"/>
<path d="M246.235 186.184C246.235 185.32 246.011 184.616 245.563 184.072C245.147 183.496 244.459 183.208 243.499 183.208C242.987 183.208 242.523 183.368 242.107 183.688C241.691 184.008 241.339 184.44 241.051 184.984C240.763 185.496 240.539 186.104 240.379 186.808C240.219 187.512 240.139 188.248 240.139 189.016C240.139 190.232 240.267 191.32 240.523 192.28C240.811 193.208 241.211 194.024 241.723 194.728C242.395 194.184 243.003 193.56 243.547 192.856C244.091 192.152 244.555 191.416 244.939 190.648C245.355 189.88 245.675 189.112 245.899 188.344C246.123 187.576 246.235 186.856 246.235 186.184ZM258.379 189.16C258.155 189.64 257.915 190.136 257.659 190.648C257.435 191.128 257.147 191.608 256.795 192.088C255.227 194.328 253.435 196.024 251.419 197.176C249.435 198.296 247.531 198.856 245.707 198.856C244.683 198.856 243.723 198.68 242.827 198.328C241.963 197.976 241.211 197.448 240.571 196.744C239.931 196.04 239.419 195.16 239.035 194.104C238.651 193.048 238.459 191.8 238.459 190.36C238.459 189.4 238.603 188.44 238.891 187.48C239.179 186.52 239.563 185.656 240.043 184.888C240.555 184.12 241.131 183.496 241.771 183.016C242.443 182.536 243.147 182.296 243.883 182.296C245.067 182.296 245.931 182.648 246.475 183.352C247.019 184.024 247.291 184.888 247.291 185.944C247.291 187.384 246.843 188.952 245.947 190.648C245.083 192.312 243.835 193.864 242.203 195.304C243.419 196.68 244.987 197.368 246.907 197.368C248.347 197.368 249.851 196.936 251.419 196.072C252.987 195.176 254.459 193.8 255.835 191.944C256.187 191.496 256.475 191.016 256.699 190.504C256.955 189.96 257.211 189.432 257.467 188.92L258.379 189.16Z" fill="#1F1711"/>
<path d="M148.676 302.093C145.946 299.743 143.31 297.235 140.77 294.567C138.293 291.836 135.975 289.042 133.816 286.184C131.72 283.327 129.783 280.437 128.005 277.516C126.29 274.531 124.829 271.609 123.623 268.752C121.464 271.101 119.304 273.483 117.145 275.896C115.049 278.246 113.176 280.627 111.525 283.041C109.873 285.391 108.54 287.772 107.524 290.185C106.444 292.535 105.904 294.885 105.904 297.235C105.904 300.029 106.381 302.442 107.333 304.474C108.222 306.443 109.429 308.063 110.953 309.333C112.477 310.603 114.224 311.524 116.192 312.095C118.161 312.667 120.193 312.953 122.289 312.953C126.481 312.953 130.926 311.968 135.626 310C140.325 308.031 144.675 305.395 148.676 302.093ZM136.864 245.603C136.864 243.381 136.356 241.793 135.34 240.84C134.387 239.824 133.339 239.316 132.196 239.316C131.244 239.316 130.227 239.634 129.148 240.269C128.132 240.904 127.179 241.825 126.29 243.031C125.464 244.174 124.766 245.572 124.194 247.223C123.623 248.874 123.337 250.684 123.337 252.653C123.337 256.272 124.004 260.115 125.337 264.179C126.925 262.528 128.418 260.909 129.815 259.321C131.212 257.733 132.418 256.177 133.435 254.653C134.514 253.065 135.34 251.541 135.911 250.081C136.546 248.556 136.864 247.064 136.864 245.603ZM173.539 315.144C173.539 315.334 173.412 315.525 173.158 315.715C172.904 315.906 172.523 316.001 172.015 316.001C168.205 314.794 164.458 313.111 160.774 310.952C157.091 308.729 153.503 306.157 150.01 303.236C147.597 305.078 145.088 306.761 142.484 308.285C139.881 309.809 137.213 311.111 134.482 312.191C131.815 313.27 129.116 314.096 126.385 314.667C123.718 315.239 121.146 315.525 118.669 315.525C116.256 315.525 113.97 315.175 111.81 314.477C109.651 313.842 107.778 312.857 106.19 311.524C104.602 310.127 103.364 308.412 102.475 306.38C101.522 304.347 101.046 301.966 101.046 299.235C101.046 296.314 101.713 293.456 103.046 290.662C104.38 287.804 106.095 285.009 108.191 282.279C110.286 279.548 112.604 276.881 115.145 274.277C117.748 271.673 120.289 269.133 122.765 266.656C120.924 261.702 120.003 257.225 120.003 253.224C120.003 250.874 120.416 248.715 121.241 246.746C122.13 244.778 123.242 243.095 124.575 241.698C125.909 240.3 127.37 239.221 128.957 238.459C130.609 237.633 132.164 237.22 133.625 237.22C135.34 237.22 136.896 237.792 138.293 238.935C139.69 240.015 140.389 241.825 140.389 244.365C140.389 245.953 139.976 247.604 139.15 249.318C138.388 251.033 137.34 252.811 136.007 254.653C134.736 256.431 133.212 258.305 131.434 260.273C129.719 262.179 127.909 264.147 126.004 266.18C128.1 271.959 131.212 277.833 135.34 283.803C139.531 289.709 144.612 295.234 150.582 300.378C153.82 297.457 156.424 294.25 158.393 290.757C160.362 287.264 161.346 283.612 161.346 279.802C161.346 278.532 161.155 277.262 160.774 275.991C160.457 274.658 159.79 273.261 158.774 271.8C158.774 271.673 158.964 271.546 159.346 271.419C159.727 271.228 160.076 271.133 160.393 271.133C161.282 271.133 161.981 271.451 162.489 272.086C163.061 272.657 163.473 273.356 163.728 274.182C164.045 275.007 164.236 275.864 164.299 276.754C164.426 277.579 164.49 278.246 164.49 278.754C164.49 282.945 163.315 287.01 160.965 290.947C158.679 294.821 155.694 298.378 152.01 301.617C158.171 306.888 165.125 311.174 172.873 314.477C173.317 314.731 173.539 314.953 173.539 315.144Z" fill="#FFA55C"/>
<path d="M37.24 281.128C37.24 279.144 37.112 277.496 36.856 276.184C36.632 274.872 36.312 274.216 35.896 274.216C35.64 274.216 35.4 274.408 35.176 274.792C34.952 275.144 34.76 275.656 34.6 276.328C34.472 276.968 34.36 277.736 34.264 278.632C34.2 279.496 34.168 280.44 34.168 281.464C34.168 283.288 34.296 285.256 34.552 287.368C34.808 289.448 35.256 291.464 35.896 293.416C36.344 291.368 36.68 289.272 36.904 287.128C37.128 284.952 37.24 282.952 37.24 281.128ZM57.352 259.336C57.352 259.496 57.288 259.624 57.16 259.72C57.032 259.816 56.872 259.928 56.68 260.056C55.72 260.632 54.936 261.432 54.328 262.456C53.72 263.48 53.224 264.6 52.84 265.816C52.488 267.032 52.248 268.28 52.12 269.56C51.992 270.808 51.928 271.96 51.928 273.016C51.928 273.752 51.96 274.664 52.024 275.752C52.12 276.808 52.216 277.976 52.312 279.256C52.44 280.536 52.536 281.896 52.6 283.336C52.696 284.744 52.744 286.184 52.744 287.656C52.744 289.736 52.616 291.752 52.36 293.704C52.136 295.656 51.672 297.4 50.968 298.936C50.296 300.472 49.352 301.704 48.136 302.632C46.92 303.56 45.336 304.024 43.384 304.024C42.488 304.024 41.64 303.848 40.84 303.496C40.072 303.176 39.352 302.712 38.68 302.104C38.04 301.496 37.448 300.792 36.904 299.992C36.392 299.192 35.928 298.312 35.512 297.352C35.096 298.472 34.6 299.512 34.024 300.472C33.48 301.432 32.872 302.264 32.2 302.968C31.528 303.672 30.792 304.216 29.992 304.6C29.192 304.984 28.344 305.176 27.448 305.176C26.072 305.176 24.904 304.824 23.944 304.12C23.016 303.416 22.248 302.488 21.64 301.336C21.032 300.216 20.552 298.936 20.2 297.496C19.88 296.024 19.64 294.536 19.48 293.032C19.32 291.496 19.208 290.008 19.144 288.568C19.112 287.096 19.08 285.8 19.048 284.68C18.984 282.664 19.016 280.76 19.144 278.968C19.304 277.144 19.48 275.512 19.672 274.072C19.864 272.6 20.056 271.336 20.248 270.28C20.44 269.224 20.568 268.44 20.632 267.928C20.664 267.736 20.856 267.608 21.208 267.544C21.592 267.48 21.928 267.448 22.216 267.448C22.44 267.448 22.632 267.48 22.792 267.544C22.952 267.576 23.032 267.672 23.032 267.832C23.032 268.024 22.952 268.36 22.792 268.84C22.632 269.288 22.392 270.152 22.072 271.432C21.944 272.008 21.8 272.84 21.64 273.928C21.512 274.984 21.384 276.184 21.256 277.528C21.16 278.872 21.08 280.312 21.016 281.848C20.952 283.352 20.92 284.824 20.92 286.264C20.92 287.384 20.968 288.616 21.064 289.96C21.16 291.272 21.32 292.584 21.544 293.896C21.768 295.176 22.072 296.424 22.456 297.64C22.84 298.856 23.304 299.928 23.848 300.856C24.424 301.784 25.096 302.52 25.864 303.064C26.632 303.64 27.528 303.928 28.552 303.928C29.32 303.928 30.024 303.736 30.664 303.352C31.304 302.968 31.896 302.424 32.44 301.72C32.984 301.048 33.464 300.248 33.88 299.32C34.328 298.392 34.728 297.384 35.08 296.296C34.344 294.28 33.8 292.136 33.448 289.864C33.096 287.592 32.92 285.496 32.92 283.576C32.92 282.168 32.968 280.776 33.064 279.4C33.192 278.024 33.368 276.792 33.592 275.704C33.816 274.616 34.104 273.736 34.456 273.064C34.808 272.392 35.224 272.056 35.704 272.056C36.088 272.056 36.424 272.296 36.712 272.776C37.032 273.256 37.288 273.912 37.48 274.744C37.704 275.576 37.864 276.568 37.96 277.72C38.088 278.84 38.152 280.056 38.152 281.368C38.152 283.48 38.008 285.704 37.72 288.04C37.432 290.344 36.984 292.6 36.376 294.808C36.792 295.928 37.272 296.968 37.816 297.928C38.36 298.856 38.968 299.672 39.64 300.376C40.344 301.08 41.112 301.624 41.944 302.008C42.808 302.424 43.752 302.632 44.776 302.632C46.184 302.632 47.336 302.28 48.232 301.576C49.128 300.904 49.832 299.976 50.344 298.792C50.856 297.576 51.208 296.184 51.4 294.616C51.592 293.016 51.688 291.304 51.688 289.48C51.688 287.848 51.624 286.168 51.496 284.44C51.4 282.712 51.288 281 51.16 279.304C51.032 277.576 50.904 275.912 50.776 274.312C50.68 272.68 50.632 271.176 50.632 269.8C50.632 268.808 50.776 267.656 51.064 266.344C51.384 265.032 51.8 263.8 52.312 262.648C52.856 261.464 53.464 260.472 54.136 259.672C54.84 258.84 55.576 258.424 56.344 258.424C56.568 258.424 56.792 258.536 57.016 258.76C57.24 258.952 57.352 259.144 57.352 259.336Z" fill="#FFF9F4"/>
<path d="M72.3396 291.208C72.3396 290.728 72.2596 290.344 72.0996 290.056C71.9396 289.736 71.6836 289.576 71.3316 289.576C70.7876 289.576 70.3716 289.848 70.0836 290.392C69.7956 290.904 69.6676 291.56 69.6996 292.36C69.7956 294.056 70.0996 295.48 70.6116 296.632C71.1556 295.896 71.5716 295.064 71.8596 294.136C72.1796 293.208 72.3396 292.232 72.3396 291.208ZM85.2996 291.16C85.0756 291.64 84.8356 292.136 84.5796 292.648C84.3236 293.128 84.0356 293.608 83.7156 294.088C82.0836 296.52 80.4356 298.328 78.7716 299.512C77.1076 300.696 75.5556 301.288 74.1156 301.288C72.2916 301.288 70.8996 300.424 69.9396 298.696C68.8196 299.816 67.5556 300.664 66.1476 301.24C64.7716 301.816 63.4116 302.104 62.0676 302.104C61.2676 302.104 60.4996 301.992 59.7636 301.768C59.0596 301.544 58.4516 301.208 57.9396 300.76C57.3956 300.28 56.9636 299.688 56.6436 298.984C56.3236 298.248 56.1636 297.4 56.1636 296.44C56.1636 295.288 56.4356 294.12 56.9796 292.936C57.4916 291.72 58.2116 290.632 59.1396 289.672C60.0996 288.68 61.2196 287.864 62.4996 287.224C63.7796 286.584 65.1716 286.264 66.6756 286.264C67.8916 286.264 68.8356 286.44 69.5076 286.792C70.1796 287.112 70.5156 287.416 70.5156 287.704C70.5156 287.832 70.4516 287.928 70.3236 287.992C70.1956 288.056 70.0836 288.088 69.9876 288.088C69.9556 288.056 69.9236 288.04 69.8916 288.04H69.8436C69.4596 287.688 69.0276 287.416 68.5476 287.224C68.0676 287 67.3636 286.888 66.4356 286.888C65.1876 286.888 64.0516 287.16 63.0276 287.704C62.0356 288.216 61.1876 288.904 60.4836 289.768C59.7796 290.6 59.2356 291.528 58.8516 292.552C58.4676 293.576 58.2756 294.584 58.2756 295.576C58.2756 297.496 58.7236 298.888 59.6196 299.752C60.5156 300.616 61.6356 301.048 62.9796 301.048C64.0676 301.048 65.2036 300.776 66.3876 300.232C67.5716 299.688 68.6276 298.92 69.5556 297.928C69.0436 296.776 68.7876 295.272 68.7876 293.416C68.7876 292.2 69.0116 291.144 69.4596 290.248C69.9076 289.352 70.5476 288.904 71.3796 288.904C72.5316 288.904 73.1076 289.576 73.1076 290.92C73.1076 292.264 72.9156 293.48 72.5316 294.568C72.1476 295.624 71.6356 296.584 70.9956 297.448C71.8916 299.112 73.1396 299.944 74.7396 299.944C75.9556 299.944 77.2516 299.432 78.6276 298.408C80.0356 297.384 81.4116 295.896 82.7556 293.944C83.0756 293.464 83.3636 292.968 83.6196 292.456C83.8756 291.944 84.1316 291.432 84.3876 290.92L85.2996 291.16Z" fill="#FFF9F4"/>
<path d="M91.9667 269.704C91.9667 267.88 91.6627 266.424 91.0547 265.336C90.4787 264.216 89.5027 263.656 88.1267 263.656C87.6467 263.656 87.1987 263.816 86.7827 264.136C86.3987 264.424 86.0627 264.824 85.7747 265.336C85.4867 265.848 85.2627 266.44 85.1027 267.112C84.9427 267.784 84.8627 268.504 84.8627 269.272C84.8627 271.384 84.8787 273.304 84.9107 275.032C84.9427 276.76 84.9747 278.392 85.0067 279.928C85.0707 281.464 85.1347 282.952 85.1987 284.392C85.2627 285.832 85.3267 287.304 85.3907 288.808C86.3187 287.56 87.1827 286.136 87.9827 284.536C88.7827 282.904 89.4707 281.24 90.0467 279.544C90.6547 277.816 91.1187 276.104 91.4387 274.408C91.7907 272.712 91.9667 271.144 91.9667 269.704ZM109.343 291.16C109.119 291.64 108.879 292.136 108.623 292.648C108.399 293.16 108.111 293.64 107.759 294.088C105.999 296.584 103.999 298.552 101.759 299.992C99.5187 301.4 97.2947 302.104 95.0867 302.104C93.7107 302.104 92.3987 301.784 91.1507 301.144C89.9027 300.536 88.7987 299.544 87.8387 298.168C87.7107 298.008 87.6467 297.864 87.6467 297.736C87.6467 297.448 87.8387 297.304 88.2227 297.304C88.2547 297.304 88.3667 297.336 88.5587 297.4C88.8147 297.4 89.1027 297.496 89.4227 297.688C89.7747 297.848 90.2707 297.928 90.9107 297.928C91.9027 297.928 92.8307 297.752 93.6947 297.4C94.5587 297.048 95.2947 296.6 95.9027 296.056C96.5427 295.48 97.0387 294.84 97.3907 294.136C97.7427 293.4 97.9187 292.648 97.9187 291.88C97.9187 290.92 97.6627 290.088 97.1507 289.384C96.6707 288.68 95.8387 288.328 94.6547 288.328C93.4387 288.328 92.3187 288.76 91.2947 289.624C90.2707 290.456 89.3427 291.48 88.5107 292.696C87.7107 293.88 87.0227 295.144 86.4467 296.488C85.8707 297.8 85.4387 298.952 85.1507 299.944C84.9907 300.488 84.8467 300.824 84.7187 300.952C84.5907 301.08 84.4467 301.144 84.2867 301.144C83.9347 301.144 83.7747 300.808 83.8067 300.136C83.8067 299.848 83.8227 299.496 83.8547 299.08C83.8867 298.664 83.9187 298.216 83.9507 297.736C83.9507 297.256 83.9667 296.776 83.9987 296.296C84.0307 295.784 84.0467 295.32 84.0467 294.904C84.0467 293.464 84.0147 291.816 83.9507 289.96C83.8867 288.072 83.8067 286.136 83.7107 284.152C83.6147 282.136 83.5347 280.136 83.4707 278.152C83.4067 276.168 83.3747 274.344 83.3747 272.68C83.3747 271.368 83.4707 270.104 83.6627 268.888C83.8547 267.64 84.1587 266.552 84.5747 265.624C84.9907 264.664 85.5187 263.912 86.1587 263.368C86.7987 262.792 87.5507 262.504 88.4147 262.504C89.3107 262.504 90.0627 262.664 90.6707 262.984C91.3107 263.272 91.8227 263.704 92.2067 264.28C92.5907 264.824 92.8627 265.496 93.0227 266.296C93.2147 267.064 93.3107 267.912 93.3107 268.84C93.3107 270.44 93.0867 272.2 92.6387 274.12C92.1907 276.008 91.5987 277.912 90.8627 279.832C90.1267 281.752 89.2787 283.608 88.3187 285.4C87.3907 287.16 86.4307 288.696 85.4387 290.008C85.5027 290.968 85.5347 291.96 85.5347 292.984C85.5667 294.008 85.6147 295.096 85.6787 296.248C86.4787 294.52 87.3587 293.032 88.3187 291.784C88.7347 291.24 89.1987 290.712 89.7107 290.2C90.2547 289.656 90.8147 289.176 91.3907 288.76C91.9987 288.344 92.6387 288.008 93.3107 287.752C94.0147 287.496 94.7507 287.368 95.5187 287.368C96.7347 287.368 97.7907 287.672 98.6867 288.28C99.5827 288.888 100.031 289.864 100.031 291.208C100.031 292.488 99.7107 293.576 99.0707 294.472C98.4627 295.368 97.6947 296.12 96.7667 296.728C95.8387 297.304 94.8467 297.736 93.7907 298.024C92.7347 298.312 91.7747 298.488 90.9107 298.552C90.8467 298.552 90.8147 298.568 90.8147 298.6C90.8147 298.664 90.8627 298.76 90.9587 298.888C91.5987 299.624 92.3187 300.152 93.1187 300.472C93.9187 300.792 94.7507 300.952 95.6147 300.952C96.6707 300.952 97.7427 300.76 98.8307 300.376C99.9187 299.96 100.959 299.432 101.951 298.792C102.943 298.12 103.855 297.368 104.687 296.536C105.551 295.672 106.255 294.808 106.799 293.944C107.119 293.464 107.407 292.968 107.663 292.456C107.919 291.944 108.175 291.432 108.431 290.92L109.343 291.16Z" fill="#FFF9F4"/>
<path d="M116.11 288.184C116.11 287.32 115.886 286.616 115.438 286.072C115.022 285.496 114.334 285.208 113.374 285.208C112.862 285.208 112.398 285.368 111.982 285.688C111.566 286.008 111.214 286.44 110.926 286.984C110.638 287.496 110.414 288.104 110.254 288.808C110.094 289.512 110.014 290.248 110.014 291.016C110.014 292.232 110.142 293.32 110.398 294.28C110.686 295.208 111.086 296.024 111.598 296.728C112.27 296.184 112.878 295.56 113.422 294.856C113.966 294.152 114.43 293.416 114.814 292.648C115.23 291.88 115.55 291.112 115.774 290.344C115.998 289.576 116.11 288.856 116.11 288.184ZM128.254 291.16C128.03 291.64 127.79 292.136 127.534 292.648C127.31 293.128 127.022 293.608 126.67 294.088C125.102 296.328 123.31 298.024 121.294 299.176C119.31 300.296 117.406 300.856 115.582 300.856C114.558 300.856 113.598 300.68 112.702 300.328C111.838 299.976 111.086 299.448 110.446 298.744C109.806 298.04 109.294 297.16 108.91 296.104C108.526 295.048 108.334 293.8 108.334 292.36C108.334 291.4 108.478 290.44 108.766 289.48C109.054 288.52 109.438 287.656 109.918 286.888C110.43 286.12 111.006 285.496 111.646 285.016C112.318 284.536 113.022 284.296 113.758 284.296C114.942 284.296 115.806 284.648 116.35 285.352C116.894 286.024 117.166 286.888 117.166 287.944C117.166 289.384 116.718 290.952 115.822 292.648C114.958 294.312 113.71 295.864 112.078 297.304C113.294 298.68 114.862 299.368 116.782 299.368C118.222 299.368 119.726 298.936 121.294 298.072C122.862 297.176 124.334 295.8 125.71 293.944C126.062 293.496 126.35 293.016 126.574 292.504C126.83 291.96 127.086 291.432 127.342 290.92L128.254 291.16Z" fill="#FFF9F4"/>
<path d="M169.839 279.064C168.655 279.064 167.519 279.192 166.431 279.448C165.375 279.704 164.431 280.008 163.599 280.36C162.799 280.712 162.143 281.08 161.631 281.464C161.151 281.848 160.911 282.184 160.911 282.472C160.911 282.856 161.359 283.048 162.255 283.048C163.791 283.048 165.247 282.68 166.623 281.944C168.031 281.208 169.295 280.248 170.415 279.064H169.839ZM183.807 286.264C183.807 287.832 183.359 289.528 182.463 291.352C181.599 293.176 180.399 294.984 178.863 296.776C177.327 298.568 175.503 300.296 173.391 301.96C171.279 303.624 169.007 305.096 166.575 306.376C164.143 307.656 161.583 308.664 158.895 309.4C156.207 310.168 153.519 310.552 150.831 310.552C150.383 310.552 149.887 310.536 149.343 310.504C148.831 310.472 148.351 310.392 147.903 310.264C147.455 310.168 147.071 309.992 146.751 309.736C146.431 309.512 146.271 309.192 146.271 308.776C146.271 308.2 146.559 307.64 147.135 307.096C147.711 306.584 148.447 306.104 149.343 305.656C150.239 305.208 151.215 304.808 152.271 304.456C153.327 304.104 154.335 303.8 155.295 303.544C156.287 303.288 157.151 303.08 157.887 302.92C158.623 302.792 159.119 302.728 159.375 302.728C159.567 302.728 159.711 302.776 159.807 302.872C159.903 302.968 159.951 303.064 159.951 303.16C159.951 303.32 159.871 303.4 159.711 303.4H159.087C158.255 303.4 157.199 303.56 155.919 303.88C154.639 304.2 153.391 304.6 152.175 305.08C150.959 305.56 149.919 306.088 149.055 306.664C148.191 307.272 147.759 307.832 147.759 308.344C147.759 308.696 147.871 308.968 148.095 309.16C148.351 309.384 148.655 309.56 149.007 309.688C149.359 309.816 149.727 309.896 150.111 309.928C150.495 309.992 150.831 310.024 151.119 310.024C153.391 310.024 155.711 309.64 158.079 308.872C160.479 308.104 162.799 307.08 165.039 305.8C167.311 304.552 169.439 303.096 171.423 301.432C173.439 299.8 175.199 298.104 176.703 296.344C178.207 294.552 179.391 292.776 180.255 291.016C181.119 289.224 181.551 287.56 181.551 286.024C181.551 284.136 180.767 282.568 179.199 281.32C177.663 280.04 175.119 279.304 171.567 279.112C170.127 280.456 168.543 281.544 166.815 282.376C165.119 283.208 163.391 283.624 161.631 283.624C160.383 283.624 159.759 283.32 159.759 282.712C159.759 282.328 160.015 281.896 160.527 281.416C161.071 280.904 161.807 280.424 162.735 279.976C163.695 279.528 164.831 279.16 166.143 278.872C167.455 278.552 168.895 278.392 170.463 278.392H171.039C172.095 277.144 172.943 275.784 173.583 274.312C174.223 272.808 174.543 271.336 174.543 269.896C174.543 268.936 174.367 268.024 174.015 267.16C173.695 266.264 173.151 265.496 172.383 264.856C171.647 264.216 170.671 263.704 169.455 263.32C168.271 262.936 166.831 262.744 165.135 262.744C163.983 262.744 162.383 262.904 160.335 263.224C158.319 263.544 156.127 264.04 153.759 264.712C151.423 265.352 149.039 266.168 146.607 267.16C144.175 268.152 141.967 269.304 139.983 270.616C137.999 271.928 136.383 273.416 135.135 275.08C133.887 276.744 133.263 278.584 133.263 280.6C133.263 280.856 133.215 281.08 133.119 281.272C133.023 281.432 132.927 281.512 132.831 281.512C132.703 281.512 132.607 281.384 132.543 281.128C132.447 280.84 132.399 280.376 132.399 279.736C132.687 277.656 133.535 275.768 134.943 274.072C136.351 272.376 138.095 270.872 140.175 269.56C142.223 268.216 144.479 267.064 146.943 266.104C149.407 265.144 151.839 264.36 154.239 263.752C156.671 263.112 158.927 262.648 161.007 262.36C163.119 262.04 164.847 261.88 166.191 261.88C168.143 261.88 169.791 262.072 171.135 262.456C172.511 262.808 173.631 263.304 174.495 263.944C175.359 264.552 175.983 265.288 176.367 266.152C176.751 267.016 176.943 267.928 176.943 268.888C176.943 270.456 176.511 272.088 175.647 273.784C174.815 275.448 173.679 277 172.239 278.44C174.287 278.536 176.047 278.808 177.519 279.256C178.991 279.672 180.191 280.232 181.119 280.936C182.047 281.608 182.719 282.408 183.135 283.336C183.583 284.232 183.807 285.208 183.807 286.264ZM158.367 298.888C158.367 299.336 158.335 299.656 158.271 299.848C158.207 300.04 158.031 300.136 157.743 300.136C157.103 300.2 156.783 299.56 156.783 298.216C156.751 293.8 156.703 289.768 156.639 286.12C156.607 282.472 156.559 279.32 156.495 276.664C156.463 273.976 156.431 271.848 156.399 270.28C156.367 268.712 156.351 267.816 156.351 267.592C156.351 267.336 156.431 267.16 156.591 267.064C156.751 266.968 156.943 266.888 157.167 266.824C157.423 266.824 157.615 266.904 157.743 267.064C157.903 267.224 157.983 267.416 157.983 267.64C157.983 270.2 157.999 272.84 158.031 275.56C158.063 278.248 158.095 280.936 158.127 283.624C158.191 286.312 158.239 288.952 158.271 291.544C158.335 294.136 158.367 296.584 158.367 298.888Z" fill="#FFF9F4"/>
<path d="M202.465 291.208C202.465 290.728 202.385 290.344 202.225 290.056C202.065 289.736 201.809 289.576 201.457 289.576C200.913 289.576 200.497 289.848 200.209 290.392C199.921 290.904 199.793 291.56 199.825 292.36C199.921 294.056 200.225 295.48 200.737 296.632C201.281 295.896 201.697 295.064 201.985 294.136C202.305 293.208 202.465 292.232 202.465 291.208ZM215.425 291.16C215.201 291.64 214.961 292.136 214.705 292.648C214.449 293.128 214.161 293.608 213.841 294.088C212.209 296.52 210.561 298.328 208.897 299.512C207.233 300.696 205.681 301.288 204.241 301.288C202.417 301.288 201.025 300.424 200.065 298.696C198.945 299.816 197.681 300.664 196.273 301.24C194.897 301.816 193.537 302.104 192.193 302.104C191.393 302.104 190.625 301.992 189.889 301.768C189.185 301.544 188.577 301.208 188.065 300.76C187.521 300.28 187.089 299.688 186.769 298.984C186.449 298.248 186.289 297.4 186.289 296.44C186.289 295.288 186.561 294.12 187.105 292.936C187.617 291.72 188.337 290.632 189.265 289.672C190.225 288.68 191.345 287.864 192.625 287.224C193.905 286.584 195.297 286.264 196.801 286.264C198.017 286.264 198.961 286.44 199.633 286.792C200.305 287.112 200.641 287.416 200.641 287.704C200.641 287.832 200.577 287.928 200.449 287.992C200.321 288.056 200.209 288.088 200.113 288.088C200.081 288.056 200.049 288.04 200.017 288.04H199.969C199.585 287.688 199.153 287.416 198.673 287.224C198.193 287 197.489 286.888 196.561 286.888C195.313 286.888 194.177 287.16 193.153 287.704C192.161 288.216 191.313 288.904 190.609 289.768C189.905 290.6 189.361 291.528 188.977 292.552C188.593 293.576 188.401 294.584 188.401 295.576C188.401 297.496 188.849 298.888 189.745 299.752C190.641 300.616 191.761 301.048 193.105 301.048C194.193 301.048 195.329 300.776 196.513 300.232C197.697 299.688 198.753 298.92 199.681 297.928C199.169 296.776 198.913 295.272 198.913 293.416C198.913 292.2 199.137 291.144 199.585 290.248C200.033 289.352 200.673 288.904 201.505 288.904C202.657 288.904 203.233 289.576 203.233 290.92C203.233 292.264 203.041 293.48 202.657 294.568C202.273 295.624 201.761 296.584 201.121 297.448C202.017 299.112 203.265 299.944 204.865 299.944C206.081 299.944 207.377 299.432 208.753 298.408C210.161 297.384 211.537 295.896 212.881 293.944C213.201 293.464 213.489 292.968 213.745 292.456C214.001 291.944 214.257 291.432 214.513 290.92L215.425 291.16Z" fill="#FFF9F4"/>
<path d="M222.092 269.704C222.092 267.88 221.788 266.424 221.18 265.336C220.604 264.216 219.628 263.656 218.252 263.656C217.772 263.656 217.324 263.816 216.908 264.136C216.524 264.424 216.188 264.824 215.9 265.336C215.612 265.848 215.388 266.44 215.228 267.112C215.068 267.784 214.988 268.504 214.988 269.272C214.988 271.384 215.004 273.304 215.036 275.032C215.068 276.76 215.1 278.392 215.132 279.928C215.196 281.464 215.26 282.952 215.324 284.392C215.388 285.832 215.452 287.304 215.516 288.808C216.444 287.56 217.308 286.136 218.108 284.536C218.908 282.904 219.596 281.24 220.172 279.544C220.78 277.816 221.244 276.104 221.564 274.408C221.916 272.712 222.092 271.144 222.092 269.704ZM239.468 291.16C239.244 291.64 239.004 292.136 238.748 292.648C238.524 293.16 238.236 293.64 237.884 294.088C236.124 296.584 234.124 298.552 231.884 299.992C229.644 301.4 227.42 302.104 225.212 302.104C223.836 302.104 222.524 301.784 221.276 301.144C220.028 300.536 218.924 299.544 217.964 298.168C217.836 298.008 217.772 297.864 217.772 297.736C217.772 297.448 217.964 297.304 218.348 297.304C218.38 297.304 218.492 297.336 218.684 297.4C218.94 297.4 219.228 297.496 219.548 297.688C219.9 297.848 220.396 297.928 221.036 297.928C222.028 297.928 222.956 297.752 223.82 297.4C224.684 297.048 225.42 296.6 226.028 296.056C226.668 295.48 227.164 294.84 227.516 294.136C227.868 293.4 228.044 292.648 228.044 291.88C228.044 290.92 227.788 290.088 227.276 289.384C226.796 288.68 225.964 288.328 224.78 288.328C223.564 288.328 222.444 288.76 221.42 289.624C220.396 290.456 219.468 291.48 218.636 292.696C217.836 293.88 217.148 295.144 216.572 296.488C215.996 297.8 215.564 298.952 215.276 299.944C215.116 300.488 214.972 300.824 214.844 300.952C214.716 301.08 214.572 301.144 214.412 301.144C214.06 301.144 213.9 300.808 213.932 300.136C213.932 299.848 213.948 299.496 213.98 299.08C214.012 298.664 214.044 298.216 214.076 297.736C214.076 297.256 214.092 296.776 214.124 296.296C214.156 295.784 214.172 295.32 214.172 294.904C214.172 293.464 214.14 291.816 214.076 289.96C214.012 288.072 213.932 286.136 213.836 284.152C213.74 282.136 213.66 280.136 213.596 278.152C213.532 276.168 213.5 274.344 213.5 272.68C213.5 271.368 213.596 270.104 213.788 268.888C213.98 267.64 214.284 266.552 214.7 265.624C215.116 264.664 215.644 263.912 216.284 263.368C216.924 262.792 217.676 262.504 218.54 262.504C219.436 262.504 220.188 262.664 220.796 262.984C221.436 263.272 221.948 263.704 222.332 264.28C222.716 264.824 222.988 265.496 223.148 266.296C223.34 267.064 223.436 267.912 223.436 268.84C223.436 270.44 223.212 272.2 222.764 274.12C222.316 276.008 221.724 277.912 220.988 279.832C220.252 281.752 219.404 283.608 218.444 285.4C217.516 287.16 216.556 288.696 215.564 290.008C215.628 290.968 215.66 291.96 215.66 292.984C215.692 294.008 215.74 295.096 215.804 296.248C216.604 294.52 217.484 293.032 218.444 291.784C218.86 291.24 219.324 290.712 219.836 290.2C220.38 289.656 220.94 289.176 221.516 288.76C222.124 288.344 222.764 288.008 223.436 287.752C224.14 287.496 224.876 287.368 225.644 287.368C226.86 287.368 227.916 287.672 228.812 288.28C229.708 288.888 230.156 289.864 230.156 291.208C230.156 292.488 229.836 293.576 229.196 294.472C228.588 295.368 227.82 296.12 226.892 296.728C225.964 297.304 224.972 297.736 223.916 298.024C222.86 298.312 221.9 298.488 221.036 298.552C220.972 298.552 220.94 298.568 220.94 298.6C220.94 298.664 220.988 298.76 221.084 298.888C221.724 299.624 222.444 300.152 223.244 300.472C224.044 300.792 224.876 300.952 225.74 300.952C226.796 300.952 227.868 300.76 228.956 300.376C230.044 299.96 231.084 299.432 232.076 298.792C233.068 298.12 233.98 297.368 234.812 296.536C235.676 295.672 236.38 294.808 236.924 293.944C237.244 293.464 237.532 292.968 237.788 292.456C238.044 291.944 238.3 291.432 238.556 290.92L239.468 291.16Z" fill="#FFF9F4"/>
<path d="M246.235 288.184C246.235 287.32 246.011 286.616 245.563 286.072C245.147 285.496 244.459 285.208 243.499 285.208C242.987 285.208 242.523 285.368 242.107 285.688C241.691 286.008 241.339 286.44 241.051 286.984C240.763 287.496 240.539 288.104 240.379 288.808C240.219 289.512 240.139 290.248 240.139 291.016C240.139 292.232 240.267 293.32 240.523 294.28C240.811 295.208 241.211 296.024 241.723 296.728C242.395 296.184 243.003 295.56 243.547 294.856C244.091 294.152 244.555 293.416 244.939 292.648C245.355 291.88 245.675 291.112 245.899 290.344C246.123 289.576 246.235 288.856 246.235 288.184ZM258.379 291.16C258.155 291.64 257.915 292.136 257.659 292.648C257.435 293.128 257.147 293.608 256.795 294.088C255.227 296.328 253.435 298.024 251.419 299.176C249.435 300.296 247.531 300.856 245.707 300.856C244.683 300.856 243.723 300.68 242.827 300.328C241.963 299.976 241.211 299.448 240.571 298.744C239.931 298.04 239.419 297.16 239.035 296.104C238.651 295.048 238.459 293.8 238.459 292.36C238.459 291.4 238.603 290.44 238.891 289.48C239.179 288.52 239.563 287.656 240.043 286.888C240.555 286.12 241.131 285.496 241.771 285.016C242.443 284.536 243.147 284.296 243.883 284.296C245.067 284.296 245.931 284.648 246.475 285.352C247.019 286.024 247.291 286.888 247.291 287.944C247.291 289.384 246.843 290.952 245.947 292.648C245.083 294.312 243.835 295.864 242.203 297.304C243.419 298.68 244.987 299.368 246.907 299.368C248.347 299.368 249.851 298.936 251.419 298.072C252.987 297.176 254.459 295.8 255.835 293.944C256.187 293.496 256.475 293.016 256.699 292.504C256.955 291.96 257.211 291.432 257.467 290.92L258.379 291.16Z" fill="#FFF9F4"/>
</svg>
