<svg width="170" height="290" viewBox="0 0 170 290" fill="none" xmlns="http://www.w3.org/2000/svg">
<g filter="url(#filter0_d_113_141)">
<path d="M163.35 5.7913C159.3 -0.211951 151.134 -1.81603 145.289 2.45837C103.292 33.1705 68.736 73.0215 44.2713 119.068C19.8066 165.115 6.12416 216.056 4.18031 268.049C3.90977 275.285 9.80968 281.154 17.0509 281.149V281.149C24.2921 281.145 30.1304 275.268 30.4236 268.033C32.3561 220.337 44.9795 173.624 67.4285 131.372C89.8776 89.1189 121.522 52.5121 159.965 24.2147C165.797 19.922 167.399 11.7945 163.35 5.7913V5.7913Z" fill="url(#paint0_linear_113_141)"/>
</g>
<defs>
<filter id="filter0_d_113_141" x="0.171387" y="0.0507812" width="169.424" height="289.099" filterUnits="userSpaceOnUse" color-interpolation-filters="sRGB">
<feFlood flood-opacity="0" result="BackgroundImageFix"/>
<feColorMatrix in="SourceAlpha" type="matrix" values="0 0 0 0 0 0 0 0 0 0 0 0 0 0 0 0 0 0 127 0" result="hardAlpha"/>
<feOffset dy="4"/>
<feGaussianBlur stdDeviation="2"/>
<feComposite in2="hardAlpha" operator="out"/>
<feColorMatrix type="matrix" values="0 0 0 0 0 0 0 0 0 0 0 0 0 0 0 0 0 0 0.25 0"/>
<feBlend mode="normal" in2="BackgroundImageFix" result="effect1_dropShadow_113_141"/>
<feBlend mode="normal" in="SourceGraphic" in2="effect1_dropShadow_113_141" result="shape"/>
</filter>
<linearGradient id="paint0_linear_113_141" x1="4.43921" y1="271.94" x2="182.939" y2="-3.56005" gradientUnits="userSpaceOnUse">
<stop stop-color="#405548"/>
<stop offset="1" stop-color="#6ADB83"/>
</linearGradient>
</defs>
</svg>
